<svg width="32" height="32" viewBox="0 0 32 32" fill="none" xmlns="http://www.w3.org/2000/svg">
<path d="M15.8333 2.5C8.47333 2.5 2.5 8.47333 2.5 15.8333C2.5 23.1933 8.47333 29.1667 15.8333 29.1667C23.1933 29.1667 29.1667 23.1933 29.1667 15.8333C29.1667 8.47333 23.1933 2.5 15.8333 2.5ZM5.16667 15.8333C5.16667 9.94 9.94 5.16667 15.8333 5.16667C18.3 5.16667 20.5667 6.00667 22.3667 7.42L7.42 22.3667C6.00667 20.5667 5.16667 18.3 5.16667 15.8333ZM15.8333 26.5C13.3667 26.5 11.1 25.66 9.3 24.2467L24.2467 9.3C25.66 11.1 26.5 13.3667 26.5 15.8333C26.5 21.7267 21.7267 26.5 15.8333 26.5Z" fill="#3C4F76" fill-opacity="0.5"/>
</svg>
