<svg width="24" height="24" viewBox="0 0 24 24" fill="none" xmlns="http://www.w3.org/2000/svg">
<path d="M12 23.59V19.99C6.99 19.73 3 15.57 3 10.5C3 5.26 7.26 1 12.5 1C17.74 1 22 5.26 22 10.5C22 15.45 18.56 20.43 13.43 22.9L12 23.59ZM12.5 3C8.36 3 5 6.36 5 10.5C5 14.64 8.36 18 12.5 18H14V20.3C17.64 18 20 14.22 20 10.5C20 6.36 16.64 3 12.5 3ZM11.5 14.5H13.5V16.5H11.5V14.5ZM13.5 13H11.5C11.5 9.75 14.5 10 14.5 8C14.5 6.9 13.6 6 12.5 6C11.4 6 10.5 6.9 10.5 8H8.5C8.5 5.79 10.29 4 12.5 4C14.71 4 16.5 5.79 16.5 8C16.5 10.5 13.5 10.75 13.5 13Z" fill="#3C4F76" fill-opacity="0.5"/>
</svg>
