<svg width="32" height="32" viewBox="0 0 32 32" fill="none" xmlns="http://www.w3.org/2000/svg">
<path d="M15.9866 2.66667C8.62663 2.66667 2.66663 8.64001 2.66663 16C2.66663 23.36 8.62663 29.3333 15.9866 29.3333C23.36 29.3333 29.3333 23.36 29.3333 16C29.3333 8.64001 23.36 2.66667 15.9866 2.66667ZM25.2266 10.6667H21.2933C20.8666 9.00001 20.2533 7.40001 19.4533 5.92001C21.9066 6.76001 23.9466 8.46667 25.2266 10.6667ZM16 5.38667C17.1066 6.98667 17.9733 8.76001 18.5466 10.6667H13.4533C14.0266 8.76001 14.8933 6.98667 16 5.38667ZM5.67996 18.6667C5.46663 17.8133 5.33329 16.92 5.33329 16C5.33329 15.08 5.46663 14.1867 5.67996 13.3333H10.1866C10.08 14.2133 9.99996 15.0933 9.99996 16C9.99996 16.9067 10.08 17.7867 10.1866 18.6667H5.67996ZM6.77329 21.3333H10.7066C11.1333 23 11.7466 24.6 12.5466 26.08C10.0933 25.24 8.05329 23.5467 6.77329 21.3333ZM10.7066 10.6667H6.77329C8.05329 8.45334 10.0933 6.76001 12.5466 5.92001C11.7466 7.40001 11.1333 9.00001 10.7066 10.6667ZM16 26.6133C14.8933 25.0133 14.0266 23.24 13.4533 21.3333H18.5466C17.9733 23.24 17.1066 25.0133 16 26.6133ZM19.12 18.6667H12.88C12.76 17.7867 12.6666 16.9067 12.6666 16C12.6666 15.0933 12.76 14.2 12.88 13.3333H19.12C19.24 14.2 19.3333 15.0933 19.3333 16C19.3333 16.9067 19.24 17.7867 19.12 18.6667ZM19.4533 26.08C20.2533 24.6 20.8666 23 21.2933 21.3333H25.2266C23.9466 23.5333 21.9066 25.24 19.4533 26.08ZM21.8133 18.6667C21.92 17.7867 22 16.9067 22 16C22 15.0933 21.92 14.2133 21.8133 13.3333H26.32C26.5333 14.1867 26.6666 15.08 26.6666 16C26.6666 16.92 26.5333 17.8133 26.32 18.6667H21.8133Z" fill="#3C4F76" fill-opacity="0.5"/>
</svg>
