<svg width="29" height="27" viewBox="0 0 29 27" fill="none" xmlns="http://www.w3.org/2000/svg">
    <path d="M16.3931 2.65561L17.6879 6.45537C18.2401 8.07577 19.7623 9.16515 21.4741 9.16515H25.349C27.3094 9.16515 28.0994 11.6928 26.4879 12.8092L23.6027 14.8079C22.1336 15.8256 21.5179 17.6945 22.0944 19.3862L23.2537 22.7884C23.876 24.6143 21.8075 26.176 20.2217 25.0775L16.7778 22.6918C15.4076 21.7425 13.5924 21.7425 12.2222 22.6918L8.77829 25.0775C7.19253 26.176 5.12404 24.6143 5.74628 22.7883L6.90563 19.3862C7.48212 17.6945 6.8664 15.8256 5.39725 14.8079L2.51213 12.8092C0.90061 11.6928 1.69061 9.16515 3.65104 9.16515H7.52586C9.23775 9.16515 10.7599 8.07577 11.3121 6.45537L12.6069 2.65561C13.2225 0.849094 15.7775 0.849094 16.3931 2.65561Z"
          fill="#F30000" stroke="#3C4F76" stroke-width="2"/>
</svg>
