<svg width="22" height="23" viewBox="0 0 22 23" fill="none" xmlns="http://www.w3.org/2000/svg">
<path d="M19.4048 12.4168C19.45 12.055 19.4839 11.6931 19.4839 11.3086C19.4839 10.9241 19.45 10.5622 19.4048 10.2003L21.7909 8.33443C22.0058 8.1648 22.0623 7.85947 21.9266 7.61068L19.6649 3.69791C19.5292 3.44912 19.2238 3.35865 18.975 3.44912L16.1592 4.57998C15.5712 4.12763 14.9379 3.75445 14.2481 3.47174L13.8183 0.474961C13.7844 0.203555 13.5469 0 13.2642 0H8.74078C8.45807 0 8.22059 0.203555 8.18666 0.474961L7.75693 3.47174C7.06711 3.75445 6.43383 4.13894 5.84578 4.57998L3.02994 3.44912C2.76985 3.34734 2.47582 3.44912 2.34012 3.69791L0.0784042 7.61068C-0.0686074 7.85947 -0.000755755 8.1648 0.214107 8.33443L2.60022 10.2003C2.55498 10.5622 2.52106 10.9354 2.52106 11.3086C2.52106 11.6818 2.55498 12.055 2.60022 12.4168L0.214107 14.2827C-0.000755755 14.4524 -0.0572988 14.7577 0.0784042 15.0065L2.34012 18.9193C2.47582 19.1681 2.78116 19.2585 3.02994 19.1681L5.84578 18.0372C6.43383 18.4895 7.06711 18.8627 7.75693 19.1454L8.18666 22.1422C8.22059 22.4136 8.45807 22.6172 8.74078 22.6172H13.2642C13.5469 22.6172 13.7844 22.4136 13.8183 22.1422L14.2481 19.1454C14.9379 18.8627 15.5712 18.4782 16.1592 18.0372L18.975 19.1681C19.2351 19.2698 19.5292 19.1681 19.6649 18.9193L21.9266 15.0065C22.0623 14.7577 22.0058 14.4524 21.7909 14.2827L19.4048 12.4168ZM11.0025 15.2666C8.81994 15.2666 7.04449 13.4911 7.04449 11.3086C7.04449 9.12603 8.81994 7.35058 11.0025 7.35058C13.1851 7.35058 14.9605 9.12603 14.9605 11.3086C14.9605 13.4911 13.1851 15.2666 11.0025 15.2666Z" fill="#383F51"/>
</svg>
