<svg width="28" height="27" viewBox="0 0 28 27" fill="none" xmlns="http://www.w3.org/2000/svg">
    <path d="M16.1381 2.93824L17.4307 6.63867C17.9915 8.24425 19.5062 9.31966 21.2069 9.31966H24.9013C26.8736 9.31966 27.6553 11.8723 26.0213 12.9767L23.4145 14.7385C21.9102 15.7551 21.2794 17.6575 21.8781 19.3716L22.9602 22.4696C23.5951 24.2871 21.5472 25.8642 19.9522 24.7862L16.4898 22.4461C15.1366 21.5316 13.3634 21.5316 12.0102 22.4461L8.54781 24.7862C6.95279 25.8642 4.90494 24.2871 5.53977 22.4696L6.62189 19.3716C7.2206 17.6575 6.58975 15.7551 5.08546 14.7385L2.47873 12.9767C0.844666 11.8723 1.62638 9.31966 3.59866 9.31966H7.29308C8.99378 9.31966 10.5085 8.24425 11.0693 6.63867L12.3619 2.93824C12.9862 1.15091 15.5138 1.15091 16.1381 2.93824Z"
          stroke="#3C4F76" stroke-opacity="0.5" stroke-width="2"/>
</svg>
