<svg width="22" height="23" viewBox="0 0 22 23" fill="none" xmlns="http://www.w3.org/2000/svg">
<path d="M19.4048 12.4168C19.45 12.055 19.4839 11.6931 19.4839 11.3086C19.4839 10.9241 19.45 10.5622 19.4048 10.2003L21.7909 8.33443C22.0058 8.1648 22.0623 7.85947 21.9266 7.61068L19.6649 3.69791C19.5631 3.51697 19.3709 3.41519 19.1673 3.41519C19.0994 3.41519 19.0316 3.4265 18.975 3.44912L16.1592 4.57998C15.5712 4.12763 14.9379 3.75445 14.2481 3.47174L13.8183 0.474961C13.7844 0.203555 13.5469 0 13.2642 0H8.74078C8.45807 0 8.22059 0.203555 8.18666 0.474961L7.75693 3.47174C7.06711 3.75445 6.43383 4.13894 5.84578 4.57998L3.02994 3.44912C2.96209 3.4265 2.89424 3.41519 2.82639 3.41519C2.63414 3.41519 2.4419 3.51697 2.34012 3.69791L0.0784042 7.61068C-0.0686074 7.85947 -0.000755755 8.1648 0.214107 8.33443L2.60022 10.2003C2.55498 10.5622 2.52106 10.9354 2.52106 11.3086C2.52106 11.6818 2.55498 12.055 2.60022 12.4168L0.214107 14.2827C-0.000755755 14.4524 -0.0572988 14.7577 0.0784042 15.0065L2.34012 18.9193C2.4419 19.1002 2.63415 19.202 2.8377 19.202C2.90555 19.202 2.9734 19.1907 3.02994 19.1681L5.84578 18.0372C6.43383 18.4895 7.06711 18.8627 7.75693 19.1454L8.18666 22.1422C8.22059 22.4136 8.45807 22.6172 8.74078 22.6172H13.2642C13.5469 22.6172 13.7844 22.4136 13.8183 22.1422L14.2481 19.1454C14.9379 18.8627 15.5712 18.4782 16.1592 18.0372L18.975 19.1681C19.0429 19.1907 19.1108 19.202 19.1786 19.202C19.3709 19.202 19.5631 19.1002 19.6649 18.9193L21.9266 15.0065C22.0623 14.7577 22.0058 14.4524 21.7909 14.2827L19.4048 12.4168ZM17.1657 10.4831C17.2109 10.8336 17.2222 11.0711 17.2222 11.3086C17.2222 11.5461 17.1996 11.7949 17.1657 12.1341L17.0074 13.412L18.0138 14.2036L19.2351 15.1535L18.4435 16.5218L17.0074 15.9451L15.8313 15.4701L14.8135 16.2391C14.3272 16.601 13.8636 16.8724 13.3999 17.0647L12.2012 17.5509L12.0203 18.8288L11.7941 20.3555H10.2109L9.99603 18.8288L9.8151 17.5509L8.61639 17.0647C8.13012 16.8611 7.67777 16.601 7.22543 16.2617L6.19635 15.4701L4.99764 15.9564L3.56145 16.5332L2.76985 15.1648L3.99118 14.2149L4.99764 13.4233L4.83932 12.1454C4.80539 11.7949 4.78278 11.5348 4.78278 11.3086C4.78278 11.0824 4.80539 10.8223 4.83932 10.4831L4.99764 9.20519L3.99118 8.41359L2.76985 7.46367L3.56145 6.09533L4.99764 6.67207L6.17373 7.14703L7.1915 6.37804C7.67777 6.01617 8.14143 5.74476 8.60508 5.55252L9.80379 5.06625L9.98473 3.78838L10.2109 2.26172H11.7828L11.9977 3.78838L12.1786 5.06625L13.3773 5.55252C13.8636 5.75607 14.3159 6.01617 14.7683 6.35542L15.7973 7.14703L16.996 6.66076L18.4322 6.08402L19.2238 7.45236L18.0138 8.41359L17.0074 9.20519L17.1657 10.4831ZM11.0025 6.78515C8.5033 6.78515 6.47906 8.80939 6.47906 11.3086C6.47906 13.8078 8.5033 15.832 11.0025 15.832C13.5017 15.832 15.5259 13.8078 15.5259 11.3086C15.5259 8.80939 13.5017 6.78515 11.0025 6.78515ZM11.0025 13.5703C9.75855 13.5703 8.74078 12.5525 8.74078 11.3086C8.74078 10.0646 9.75855 9.04687 11.0025 9.04687C12.2464 9.04687 13.2642 10.0646 13.2642 11.3086C13.2642 12.5525 12.2464 13.5703 11.0025 13.5703Z" fill="#3C4F76"/>
</svg>
