<svg width="317" height="238" viewBox="0 0 317 238" fill="none" xmlns="http://www.w3.org/2000/svg">
<path fill-rule="evenodd" clip-rule="evenodd" d="M189.457 68.046C192.798 66.1683 194.748 62.8023 196.679 59.4703C196.969 58.9691 197.259 58.469 197.553 57.9747C197.75 57.6437 197.965 57.3025 198.185 56.9548V56.9545C198.764 56.0357 199.373 55.0703 199.752 54.1252C199.919 53.7118 200.062 53.1053 200.207 52.4923C200.378 51.7693 200.551 51.0374 200.766 50.6038C201.236 49.6568 204.798 49.2257 207.224 48.9322C208.025 48.8352 208.703 48.7534 209.104 48.6725C213.368 47.816 218.465 47.3022 221.949 50.6441C222.778 51.4384 223.705 52.171 224.637 52.906C225.753 53.7871 226.873 54.6718 227.832 55.6706C229.372 57.2746 231.446 59.9729 232.178 62.1158C228.424 62.8401 222.186 65.0586 220.692 69.002C215.189 63.9458 212.866 72.3675 211.648 76.7866C211.573 77.0562 211.503 77.3113 211.436 77.5471C208.44 76.2489 208.595 72.2987 208.709 69.4061V69.4058C208.726 69.0005 208.741 68.6162 208.746 68.2626C208.754 67.7383 208.834 67.1919 208.911 66.6589C209.171 64.872 209.409 63.2364 206.86 63.0923C204.386 62.9532 201.983 63.9616 199.752 64.9058C196.969 66.0844 194.048 67.847 191.8 69.8719L189.457 68.046ZM184.05 60.1691C184.05 60.2651 184.048 60.3609 184.048 60.4566C184.039 61.3086 184.031 62.1577 184.289 62.9789C184.439 63.4536 184.441 64.1478 184.443 64.8144C184.445 65.2975 184.446 65.7664 184.504 66.1268C182.087 65.3905 177.598 64.2981 175.13 65.2913C172.772 66.2405 172.475 70.6308 172.392 72.7663C172.371 73.3059 172.446 73.9539 172.525 74.6263C172.658 75.7677 172.799 76.9803 172.491 77.857C172.254 78.5329 172.262 78.7328 172.277 78.7814C172.237 78.7575 172.051 78.7504 171.373 79.2404C171.071 79.4582 170.743 79.6318 170.412 79.8059C170.018 80.0136 169.622 80.2224 169.266 80.5094C168.32 81.2733 167.998 82.1184 167.61 83.1323C167.51 83.3939 167.406 83.6669 167.285 83.9526C166.715 85.3056 165.195 86.508 163.499 86.4591C163.714 86.0674 163.943 85.68 164.172 85.2936C165.387 83.2386 166.583 81.2144 165.669 78.7684C164.865 76.6171 166.231 74.0998 167.351 72.0384L167.416 71.9175C167.485 71.7911 167.681 71.51 167.943 71.1329C169.111 69.4539 171.602 65.8727 170.101 65.5684C169.034 65.3518 166.732 69.8121 165.88 71.4614C165.779 71.6572 165.699 71.8137 165.643 71.9175C164.181 70.928 163.525 69.7083 164.65 68.218C165.048 67.6909 165.488 67.1991 165.928 66.706C166.445 66.1284 166.963 65.5492 167.416 64.9099C167.817 64.3461 168.214 63.7502 168.617 63.1469C169.588 61.691 170.589 60.1898 171.736 58.9822C174.585 55.9824 179.558 53.9402 183.661 53.9219C183.569 55.0905 183.702 56.2132 183.837 57.3512C183.946 58.27 184.056 59.1985 184.05 60.1691ZM172.287 78.7947C172.289 78.7929 172.286 78.7867 172.277 78.7814C172.281 78.7938 172.286 78.7963 172.287 78.7947ZM195.621 108.098C196.43 106.398 197.136 104.912 197.553 104.161C200.075 99.6191 202.572 95.1157 204.935 90.4896C203.061 91.2051 201.473 92.3022 199.864 93.4138C199.621 93.5814 199.378 93.7491 199.134 93.9161C198.286 94.4947 197.362 95.0169 196.432 95.5418C195.037 96.3302 193.631 97.1248 192.458 98.1245C192.192 98.3507 191.977 98.6014 191.772 98.8407C191.304 99.3864 190.889 99.8708 190.044 99.8624C189.467 99.8568 188.649 99.2599 187.918 98.726C187.493 98.4152 187.096 98.1257 186.794 97.9869C186.198 97.7142 185.707 97.3569 185.221 97.0036C184.673 96.6054 184.132 96.2121 183.456 95.9499C183.036 95.7866 182.692 95.7321 182.375 95.6819C181.84 95.597 181.382 95.5242 180.761 94.9589C180.361 97.3256 174.804 96.2109 171.199 95.4876C170.002 95.2474 169.02 95.0506 168.513 95.0385C168.321 95.0342 168.121 95.0283 167.916 95.0221C166.114 94.9698 163.876 94.9047 162.306 95.5793C161.104 96.0959 159.683 97.263 158.45 98.2754C157.974 98.6668 157.526 99.0347 157.129 99.3334C155.173 100.806 153.778 102.683 152.338 104.721C150.49 107.336 153.25 107.084 155.241 106.902C155.378 106.889 155.512 106.877 155.64 106.866C160.178 106.48 164.588 107.245 168.963 108.283C172.87 109.21 176.424 110.633 180.165 112.136C180.858 112.414 182.117 113.069 183.538 113.807C186.433 115.312 189.998 117.164 190.801 116.89C191.566 116.629 193.841 111.844 195.621 108.098Z" fill="#3C4F76"/>
<path fill-rule="evenodd" clip-rule="evenodd" d="M220.978 78.6371C222.553 78.5566 224.121 78.9086 225.696 78.7552C224.329 77.5627 222.961 76.3705 221.594 75.1784C220.99 76.2404 220.945 77.4487 220.978 78.6371ZM183.607 54.125C179.53 54.143 174.557 56.1929 171.725 59.1868C170.224 60.7735 168.984 62.9043 167.715 64.6869C166.864 65.8831 166.033 67.0374 164.999 68.0886C163.493 69.6204 163.924 69.9706 165.622 71.124C166.159 70.1162 169.008 64.7278 170.202 64.9701C172.016 65.3389 168.512 71.0304 168.13 71.7395C166.996 73.8375 165.166 76.7678 165.988 78.9805C167.073 81.9013 165.5 83.5657 164.134 86.0545C165.568 86.096 165.71 85.536 166.204 84.311C166.839 82.7367 167.532 81.4215 168.875 80.3332C169.915 79.4903 171.616 79.1354 172.104 78.1177C172.709 76.8599 172.329 74.3761 172.378 72.9766C172.453 70.8501 172.458 65.8236 174.799 64.8787C177.251 63.8889 181.661 64.8217 184.058 65.5549C183.759 63.6809 182.815 62.4572 182.828 60.3747C182.842 58.1948 183.441 56.2503 183.607 54.125ZM152.286 88.9003C154.419 88.2244 156.441 87.5122 158.635 87.0517C160.931 86.5695 161.085 86.0179 162.379 84.0467C163.36 82.5523 164.551 81.3878 164.273 79.5578C164.094 78.3839 163.453 77.8122 163.645 76.492C163.765 75.6739 164.147 74.7808 164.422 74.0026C164.76 73.0482 165.46 71.9657 163.832 71.9186C162.933 71.8922 162.889 72.3673 162.28 73.1647C161.157 74.6376 159.864 75.9751 158.669 77.3879C156.593 79.8408 154.392 82.4507 152.075 84.721C149.524 87.2191 147.322 90.2319 145.674 93.43C145.369 94.0207 143.517 97.4992 144.307 98.1813C145.033 98.8079 149.067 97.3468 149.803 97.176C152.979 96.4382 156.583 96.1747 159.583 94.8344C161.112 94.1514 164.485 93.3364 165.692 92.28C166.814 91.2979 166.764 88.9185 166.112 87.5342C164.29 88.6694 151.111 92.9525 152.286 88.9003ZM191.961 69.3781C194.089 67.4539 196.604 65.9103 199.232 64.7665C201.582 63.7435 204.502 62.6031 207.117 62.7807C210.374 63.0016 209.013 65.6286 209.001 67.8655C208.986 70.8339 207.687 75.1099 211.227 76.6501C212.383 72.5399 214.819 62.821 220.655 68.2063C222.146 64.2546 227.466 62.917 231.212 62.1913C230.533 60.1946 228.47 58.3873 227.041 56.8886C225.253 55.0141 223.841 52.8169 222.05 50.9777C218.511 47.3454 212.1 48.5118 207.62 49.4174C206.124 49.7192 201.789 50.0985 201.064 51.198C200.61 51.8875 200.864 53.5721 200.527 54.4154C200.063 55.5768 199.27 56.6537 198.634 57.7266C196.313 61.6415 193.952 65.5818 189.981 67.8236L191.961 69.3781ZM204.948 90.4689C202.847 91.2759 201.301 92.6255 199.438 93.7619C197.178 95.14 194.528 96.4307 192.5 98.1327C191.758 98.7553 191.341 99.8306 190.317 99.9003C189.426 99.9611 188.069 98.9251 187.279 98.5628C185.954 97.9539 184.688 97.0313 183.357 96.4887C182.262 96.0427 181.778 96.1338 180.831 95.2664C180.3 98.4308 170.639 95.4731 168.612 95.4248C166.737 95.3802 164.164 95.6027 162.419 96.357C160.756 97.0759 159.456 98.6579 158.033 99.7358C156.082 101.214 154.221 102.709 152.784 104.755C150.813 107.56 153.786 106.766 155.769 106.597C160.295 106.209 164.698 107.289 169.061 108.33C172.96 109.261 176.812 110.377 180.545 111.886C182.645 112.736 184.855 113.516 186.829 114.619C187.871 115.201 189.559 116.625 190.754 116.215C191.849 115.839 192.941 112.695 193.605 111.439C194.895 109.002 196.251 106.606 197.583 104.192C200.099 99.6335 202.59 95.1127 204.948 90.4689ZM179.092 150.806C180.387 150.062 182.498 150.262 183.93 149.95C185.548 149.598 187.175 149.023 188.717 148.425C190.28 147.819 191.756 147.198 193.184 146.44C193.837 146.093 194.707 145.752 195.31 145.27C195.797 144.882 195.974 144.161 196.422 143.81C197.592 142.892 197.936 143.468 198.093 141.696C198.263 139.772 197.184 138.683 195.842 137.242C194.64 135.954 193.079 134.84 191.569 133.933C190.901 133.533 190.187 133.081 189.505 132.699C188.474 132.119 187.092 131.156 186.55 132.4C187.678 132.688 187.926 134.129 186.909 134.646C186.35 134.931 185.504 134.513 184.874 134.815C183.902 135.282 182.967 136.585 182.134 137.286C179.402 139.589 176.789 140.452 173.212 140.637C165.74 141.023 157.914 140.169 150.585 139.061C148.699 138.775 146.816 139.084 144.912 139.016C143.06 138.95 141.128 138.545 139.307 138.231C135.8 137.628 132.103 137.132 128.65 136.245C124.474 135.171 120.284 133.783 116.363 131.985C112.603 130.26 108.352 127.409 104.128 127.19C105.93 128.956 108.631 129.637 110.8 130.801C112.572 131.751 115.343 132.362 116.463 133.928C117.191 134.948 117.557 136.821 118.108 138.016C118.716 139.339 119.278 140.684 119.842 142.026C120.408 143.377 120.998 144.729 121.457 146.121C121.742 146.984 121.865 148.774 122.537 149.364C123.61 150.306 127.2 150.724 128.645 151.038C131.344 151.623 134.423 151.545 137.175 151.586C138.313 151.603 139.46 151.758 140.546 151.779C142.073 151.808 141.927 151.544 141.906 150.217C141.893 149.42 141.909 147.972 142.974 148.628C143.699 149.075 143.2 151.055 143.065 151.759C149.142 152.365 155.481 152.669 161.529 152.467C167.476 152.267 173.217 151.5 179.092 150.806ZM206.533 136.844C207.605 129.137 208.911 121.301 210.374 113.693C211.852 106.006 213.629 98.3886 215.627 90.7302C214.307 90.4138 212.987 90.0983 211.667 89.7825C211.618 91.3962 211.072 92.7978 210.84 94.404C210.519 96.621 209.906 98.7738 209.539 100.984C208.842 105.184 207.55 109.294 206.411 113.39C205.251 117.566 204.863 121.869 203.797 126.065C202.919 129.523 202.47 133.332 201.979 136.886C200.789 145.51 199.093 154.15 197.802 162.778C196.592 170.866 196.471 179.12 196.54 187.284C196.583 192.269 197.343 197.239 197.303 202.231C197.293 203.464 197.397 204.694 197.461 205.926C197.506 206.795 197.04 209.205 197.435 209.933C197.686 210.393 198.761 210.819 199.142 211.458C199.744 212.471 199.871 213.682 200.839 214.448C201.623 211.282 201.252 207.103 201.081 203.872C200.915 200.759 201.237 197.541 201.301 194.38C201.424 188.179 201.753 182.069 202.07 175.865C202.418 169.061 203.408 162.092 204.376 155.339C205.255 149.199 205.842 142.95 206.533 136.844ZM177.835 40.1905C177.41 40.1505 176.985 40.1112 176.56 40.0715C176.624 40.9684 176.434 42.4208 177.066 42.8888C177.544 43.2433 178.513 43.1268 179.094 43.2399C180.995 43.6121 183.198 43.9235 185.086 43.2455C185.82 42.9821 185.348 42.5696 186.358 42.741C187.575 42.948 187.131 43.1407 187.482 43.9003C187.753 44.4866 187.892 45.4845 188.199 46.1886C188.61 47.1303 189.443 48.8162 189.087 49.9039C188.741 50.9613 187.449 51.2808 186.9 52.4782C186.492 53.3685 186.588 54.6627 186.376 55.6432C186.093 56.9509 185.735 58.2537 185.577 59.5857C185.378 61.2637 185.447 63.2328 187.523 63.4928C189.451 63.7349 190.829 63.1148 192.122 61.7094C194.591 59.0266 197.409 55.2397 198.86 51.8649C199.029 51.4707 199.446 50.8128 199.388 50.3907C199.273 49.5559 199.223 50.401 198.958 49.8212C198.706 49.2668 198.31 48.7638 198.077 48.1486C197.24 45.9388 196.646 43.6223 196.311 41.2829C196.158 40.2231 196.107 39.1762 196.134 38.1062C196.142 37.7408 196.361 36.6438 196.23 36.3934C196.097 36.1399 195.403 36.023 195.186 35.7714C194.785 35.305 194.095 33.9883 193.651 33.639C193.104 33.2101 191.88 33.5501 191.658 32.6966C191.302 31.3312 199.714 29.1071 195.784 27.285C192.85 25.9246 188.35 32.8017 187.324 27.3902C187.146 26.4529 187.485 25.1805 187.074 24.3215C186.62 23.3721 185.385 23.0171 184.522 22.5551C183.42 21.9661 182.308 21.3607 181.237 20.7155C180.503 20.2733 179.445 19.0991 178.664 18.9916C178.971 20.5854 178.382 22.1652 178.372 23.7558C180.064 23.2973 181.229 23.2875 182.9 24.1029C183.696 24.491 186.694 26.6933 185.175 27.7525C183.944 27.0244 182.628 26.3929 181.256 25.9648C180.715 25.7957 180.04 25.5658 179.464 25.5541C178.128 25.5272 178.317 25.6671 177.815 26.6753C177.331 27.6466 177.435 30.1796 176.374 30.7999C175.277 31.4412 176.123 30.5435 175.186 30.7508C174.651 30.8692 174.069 31.2671 173.579 31.4917C174.25 32.2203 175.603 32.8853 176.048 33.6945C176.697 34.8743 176.471 37.3141 176.573 38.6048C177.422 38.3005 178.316 38.2881 179.177 38.0622C179.986 37.8493 181.108 36.9289 181.192 38.2822C181.287 39.7901 178.905 40.1905 177.835 40.1905ZM188.887 79.8959C188.953 78.5928 189.026 77.29 189.171 75.9922C189.269 75.1207 190.095 72.5932 189.628 71.8278C189.12 70.9951 187.417 70.9421 186.597 70.7422C185.026 70.3589 183.52 70.045 181.923 69.7918C180.454 69.559 179.071 69.5101 177.591 69.4425C175.98 69.3697 175.58 68.9417 175.224 70.7193C174.944 72.1172 174.568 73.5731 174.516 75.0042C174.467 76.3476 174.873 77.5138 173.543 78.419C176.463 78.419 180.266 75.8161 182.931 78.1435C186.743 81.4717 180.109 82.4306 178.36 83.1653C179.814 83.8728 181.973 84.4285 182.657 86.0443C183.425 87.8556 182.311 88.6257 180.605 88.7707C180.766 89.4689 181.38 89.9223 181.563 90.7618C181.83 91.9924 180.961 91.5849 182.07 92.5372C183.53 93.7904 186.536 94.6284 188.326 95.4267C188.746 95.6145 189.17 95.7905 189.599 95.9553C190.27 96.5528 190.765 96.4391 191.085 95.6135C192.004 95.0315 192.821 93.7331 193.636 92.9779C195.448 91.297 197.449 89.8222 199.604 88.6086C198.71 88.2383 197.642 89.075 196.785 88.6678C196.093 88.3387 196.354 87.7397 195.939 87.2913C196.105 86.7065 195.93 86.4927 195.413 86.6498C195.154 86.6774 194.913 86.6334 194.691 86.5184C194.257 85.9807 194.063 85.8047 194.034 84.9745C194.003 84.0938 194.513 83.7829 194.709 83.0776C195.344 82.6441 195.33 82.218 194.665 81.8002C194.392 81.3531 194.243 80.8681 194.218 80.3447C194.092 78.4019 195.863 77.6188 197.214 76.5912C194.795 76.325 194.888 73.4848 196.561 72.2434C198.296 70.956 201.969 71.4832 204.067 71.7736C204.503 71.8334 205.682 72.3968 206.123 72.0376C206.394 71.8176 206.203 69.9566 206.215 69.6281C206.243 68.8825 206.425 67.9934 206.306 67.2516C206.057 65.6984 206.584 66.4805 205.467 66.4375C202.809 66.3343 199.423 68.6572 197.085 69.7524C194.467 70.9784 192.785 71.1668 192.757 74.2065C192.731 77.0845 191.925 79.9523 191.573 82.7848C191.419 84.0216 191.309 90.4479 189.048 88.0765C188.171 87.1565 188.733 85.7421 188.798 84.6076C188.887 83.0466 188.834 81.4612 188.887 79.8959ZM42.6486 176.241C43.9429 176.471 46.0505 175.727 47.4624 175.649C49.9309 175.513 52.4731 175.278 54.8918 174.763C56.7839 174.361 58.94 174.007 59.9604 172.173C60.8727 170.535 61.1949 168.483 61.6862 166.695C61.9472 165.745 62.6205 164.369 62.6202 163.387C62.6199 162.109 62.4481 162.361 61.1179 161.662C59.4341 160.778 57.7959 159.545 55.9796 159.044C55.4301 158.936 54.8803 158.831 54.3302 158.728C53.6185 158.314 53.217 158.518 53.1238 159.337C52.4292 160.07 52.0221 161.421 51.4391 162.279C50.1105 164.234 48.5326 165.566 46.4712 166.693C42.7616 168.722 39.3052 170.287 35.3322 171.613C33.1426 172.344 31.1236 173.369 28.9834 174.175C27.2688 174.821 24.9025 175.017 23.5854 176.454C22.0994 178.075 24.3835 178.664 25.6531 179.76C26.6934 180.658 26.7136 180.864 28.1366 180.428C29.1967 180.104 30.1366 179.482 31.1546 179.061C34.6419 177.619 38.8625 176.66 42.6486 176.241ZM122.345 201.953C121.046 201.672 119.746 201.39 118.446 201.109C119.724 203.498 122.412 206.993 120.483 209.757C119.762 210.79 118.563 211.085 117.491 211.608C116.194 212.243 114.997 213.055 113.771 213.811C108.716 216.927 103.578 220.087 98.2514 222.76C99.9191 223.299 102.483 223.672 104.2 223.203C106.2 222.656 108.052 221.4 110.105 220.851C113.789 219.867 117.666 219.029 121.408 218.524C124.467 218.112 132.124 219.044 131.752 214.439C131.399 210.067 128.79 205.895 128.014 201.573C126.109 201.996 124.292 201.922 122.345 201.953ZM199.812 131.972C201.293 124.694 202.178 117.292 203.925 110.066C204.797 106.462 205.411 102.807 206.263 99.2018C206.659 97.5243 206.959 95.8301 207.344 94.1558C207.735 92.4606 208.576 90.8963 208.769 89.1438C207.353 89.4946 207.025 92.7402 206.596 93.9612C205.809 96.2011 204.951 98.3536 203.939 100.498C202.331 103.907 200.625 107.196 198.812 110.501C196.899 113.987 194.879 117.339 192.49 120.522C191.705 121.569 190.64 122.388 190.133 123.535C189.338 125.341 189.003 127.492 188.244 129.37C188.779 129.642 190.161 129.71 190.818 129.839C192.039 130.08 192.894 130.295 194.067 130.876C196.132 131.9 197.868 133.113 199.248 134.955C199.595 134.01 199.685 132.973 199.812 131.972ZM142.233 187.503C142.208 180.494 142.109 173.424 142.224 166.467C142.255 164.535 142.413 162.451 142.692 160.534C142.868 159.328 143.902 156.767 143.222 156.189C142.641 155.695 139.575 156.021 138.822 156.003C137.363 155.969 135.908 155.904 134.446 155.794C134.446 158.392 135.46 161.342 135.931 163.911C136.37 166.309 136.731 168.719 137.093 171.127C137.878 176.342 138.101 181.628 138.953 186.857C139.724 191.598 140.742 196.319 141.304 201.059C141.612 203.661 142.235 206.116 142.719 208.716C142.972 210.072 143.895 215.657 145.056 216.206C145.302 214.203 144.299 211.784 144.119 209.758C143.934 207.666 143.79 205.56 143.451 203.458C143.053 200.989 142.852 198.46 142.7 195.961C142.607 194.432 142.579 192.907 142.446 191.379C142.351 190.271 141.932 188.59 142.233 187.503ZM178.723 93.7718C178.772 93.0085 176.798 93.0392 176.431 92.1619C175.685 90.3803 177.384 90.7011 178.429 90.5167C178.057 89.5259 171.08 89.8866 172.706 87.2122C173.833 85.3566 178.109 88.1968 179.251 86.4335C180.002 85.2754 177.959 85.1158 177.148 84.9999C175.928 84.8248 173.055 85.3904 173.149 83.8059C173.268 81.8151 178.855 80.441 180.422 79.8563C180.248 78.493 173.525 80.4308 172.552 80.9834C170.349 82.2341 168.662 84.4784 168.339 86.9724C167.962 89.8743 169.433 92.1597 172.328 92.8719C173.535 93.1688 174.427 93.2019 175.544 93.6482C176.28 93.9416 178.658 94.6736 179.162 93.933C179.016 93.8794 178.87 93.8254 178.723 93.7718ZM218.194 75.7219C218.305 74.4827 219.347 72.1498 218.146 71.3357C216.466 70.1962 215.77 72.0738 215.389 73.2019C214.924 74.579 212.967 77.9501 214.678 78.8082C215.076 79.0078 216.963 78.7756 217.295 78.6439C218.223 78.8857 218.521 78.5383 218.194 77.6005V75.7219ZM177.188 175.798C177.083 172.412 178.598 168.34 179.456 165.022C180.43 161.263 180.942 157.43 181.973 153.712C180.827 153.851 179.669 153.964 178.536 154.194C176.99 154.509 176.962 154.459 177.073 155.977C177.239 158.257 177.022 160.492 176.904 162.772C176.668 167.335 177.242 171.973 176.861 176.507C177.201 176.594 177.31 176.358 177.188 175.798ZM219.995 87.0316C223.709 87.6009 227.269 88.7797 230.649 90.3636C232.513 91.2366 234.565 92.1749 236.647 92.5236C238.96 92.9112 241.413 92.7293 243.776 92.8787C244.609 92.9314 246.798 93.3364 247.61 92.8462C248.414 92.3602 248.351 91.5372 248.389 90.5557C248.487 88.0316 247.345 85.5602 246.319 83.2955C245.438 81.3524 244.773 79.869 243.407 78.1977C241.652 76.051 240.125 73.7346 238.482 71.494C237.243 69.8054 235.991 68.1406 234.729 66.4539C233.826 65.2459 233.868 64.8303 232.507 64.9654C231.166 65.0987 229.817 65.892 228.554 66.3123C226.68 66.9364 224.41 67.2788 222.701 68.2767C221.596 68.9219 221.547 69.0406 221.56 70.1664C221.572 71.2151 221.91 72.4944 222.536 73.3147C223.838 75.0179 225.996 75.9193 227.848 76.7691C228.92 77.2603 229.845 77.9575 230.799 78.6353C231.827 79.366 233.9 79.7964 234.686 80.6294C236.975 83.0553 232.808 82.5759 231.644 82.5028C229.131 82.3444 226.632 82.3686 224.1 82.3667C221.338 82.3649 218.597 82.2363 215.873 82.3261C214.277 82.3788 212.447 81.5687 211.413 80.2185C210.912 79.5643 210.717 78.9461 210.063 78.2674C209.205 77.3789 208.459 76.4428 207.416 75.7551C205.709 74.6299 202.607 73.9933 200.574 74.4132C201.302 74.5149 204.725 75.6813 203.218 77.1475C203.034 77.326 200.833 77.4428 200.355 77.6628C199.491 78.0598 198.402 78.6368 197.896 79.4751C199.371 79.2278 204.84 78.9414 202.05 81.7742C201.365 82.4696 199.399 83.1635 201.072 83.9029C201.456 84.0727 202.226 83.8322 202.72 83.9853C203.456 84.2134 204.057 84.823 204.746 85.148C206.7 86.0709 209.394 86.6399 211.434 86.4378C214.254 86.1577 217.193 86.6619 219.995 87.0316ZM145.202 172.385C145.299 176.454 145.152 180.547 145.239 184.635C145.331 189.001 145.891 193.279 146.157 197.601C146.397 201.474 146.919 205.274 147.344 209.128C147.588 211.349 147.869 213.472 148.245 215.676C148.596 217.738 148.656 219.555 146.194 220.109C141.486 221.169 140.754 214.389 139.844 211.532C138.486 207.269 137.615 202.793 136.942 198.373C135.689 190.141 134.023 182.025 133.373 173.723C132.973 168.611 132.392 163.552 132.063 158.445C131.998 157.444 132.253 155.902 131.375 155.456C130.847 155.189 129.393 155.186 128.726 154.992C126.869 154.452 125.156 153.655 123.344 152.829C124.63 159.56 125.055 166.258 126.02 173.048C126.531 176.651 127.511 180.384 128.36 183.931C129.239 187.605 129.434 191.562 130.449 195.156C130.896 196.741 131.274 197.386 130.626 199.013C129.83 201.009 130.358 201.486 131.356 203.447C133.191 207.054 134.592 211.31 134.281 215.376C134.027 218.697 131.521 220.436 128.416 221.331C124.532 222.452 120.465 222.319 116.558 223.592C113.154 224.7 109.695 225.519 106.389 226.982C105.056 227.572 103.79 228.272 102.31 228.381C100.279 228.528 98.9105 227.349 96.9933 227.103C95.795 226.95 94.0404 227.522 93.35 226.265C92.8027 225.268 93.4218 223.092 94.1091 222.29C96.0389 220.035 99.9039 218.069 102.506 216.739C105.506 215.205 108.409 213.285 111.188 211.305C112.873 210.105 114.591 208.954 116.274 207.751C117.388 206.955 117.811 206.95 117.697 205.686C117.606 204.678 117.153 203.7 117.073 202.668C117.012 201.877 117.289 200.799 116.916 200.283C116.641 199.902 115.61 199.633 115.205 199.345C113.723 198.293 113.386 196.992 112.713 195.392C111.184 191.758 109.428 188.226 107.951 184.563C104.781 176.698 102.847 168.427 100.219 160.401C97.5345 152.202 95.1338 143.594 93.6552 135.087C91.6768 135.69 89.8095 138.357 88.2337 139.676C86.1051 141.46 83.9239 143.184 81.8365 145.017C78.4148 148.02 74.9501 150.941 72.1225 154.539C70.76 156.271 69.6447 158.136 68.4113 159.956C67.699 161.007 67.0347 162.197 66.2632 163.198C66.1394 163.358 66.1357 163.688 66.0023 163.825C65.7085 164.125 65.1472 163.725 64.959 163.923C63.7963 165.14 63.8114 168.596 63.4492 170.201C62.9499 172.415 62.3893 174.959 60.6631 176.485C57.9965 178.84 53.0789 179.205 49.7043 179.328C45.3734 179.485 41.1722 180.693 37.0633 181.99C35.1468 182.595 33.2804 183.304 31.3567 183.891C30.2503 184.229 28.9881 184.904 27.8065 184.774C26.3815 184.618 25.2564 183.418 24.2126 182.525C22.5428 181.098 20.9968 179.692 21.0521 177.35C21.1109 174.872 22.4521 173.001 24.5649 171.77C28.6498 169.39 33.2185 167.864 37.6215 166.219C39.3086 165.588 40.7531 164.89 42.3663 164.042C44.6459 162.842 47.2699 161.862 49.2926 160.278C49.8888 159.811 52.0806 158.379 52.2672 157.64C52.2917 157.544 51.7441 156.416 51.7416 156.237C51.7363 155.777 52.0084 155.279 52.1759 154.885C53.2294 152.406 54.9964 150.018 56.3474 147.68C58.8215 143.398 61.3052 139.093 64.1736 135.066C69.8936 127.036 76.319 119.174 83.254 112.164C86.6348 108.747 89.5562 104.871 92.9847 101.502C94.3431 100.167 95.777 99.0797 97.4506 98.2132C99.3164 97.2476 101.411 97.0583 103.549 96.7632C108.731 96.0492 113.059 97.5838 117.924 98.9192C122.524 100.181 127.128 101.246 131.754 102.561C136.833 104.005 141.861 105.39 146.924 106.963C149.63 107.804 152.413 108.32 155.131 109.127C156.44 109.515 161.388 111.948 162.48 111.149C159.042 109.534 155.52 108.062 151.842 107.087C150.759 106.8 150.067 107.118 150.107 105.873C150.129 105.194 150.892 104.277 151.166 103.718C151.823 102.38 152.567 101.072 153.21 99.7299C150.879 100.393 144.611 102.687 142.854 100.315C141.016 97.833 142.551 92.9667 143.703 90.5365C146.712 84.1926 151.828 78.8987 156.813 74.1164C157.892 73.0826 160.216 71.7323 160.791 70.4153C160.966 70.0149 160.585 69.4267 160.98 68.9067C161.214 68.5971 162.156 68.3858 162.532 68.0523C163.903 66.8375 164.997 64.2815 165.944 62.689C166.936 61.0211 167.83 59.215 169.076 57.7185C171.116 55.2716 173.221 52.6778 176.522 52.1054C178.142 51.8249 179.862 51.9746 181.413 51.4146C183.29 50.7375 185.074 49.6709 186.969 48.9696C186.499 48.0021 186.118 46.4631 185.205 46.3575C184.327 46.2555 183.039 47.0113 182.034 47.0058C180.566 46.9977 179.312 46.7628 177.896 46.4826C176.327 46.1721 175.811 46.2285 175.239 44.5257C174.64 42.7419 174.791 40.6699 174.796 38.8171C174.798 37.9119 174.978 36.7879 174.9 35.8991C174.785 34.56 174.525 34.5086 173.476 33.657C172.166 32.5931 170.551 31.1853 172.156 29.3366C173.023 28.3377 174.805 29.1145 175.573 28.0412C176.355 26.9481 176.318 24.2019 176.556 22.9178C174.144 24.1045 175.029 19.6683 175.028 18.6009C175.028 17.0476 173.988 14.2543 175.485 12.962C176.181 12.3621 176.697 12.8584 177.492 12.5136C178.4 12.1201 178.972 11.0881 179.937 10.688C181.856 9.8925 183.816 10.8505 185.786 10.6923C188.046 10.5112 190.266 10.1613 192.538 10.5244C193.615 10.6958 194.068 11.1053 194.979 11.5642C195.856 12.0056 196.744 12.1264 197.696 12.4104C198.543 12.6632 199.285 12.791 199.857 13.5296C200.309 14.114 200.125 15.0969 200.582 15.6007C201.032 16.097 201.923 16.0249 202.46 16.6144C202.976 17.18 203.284 18.115 203.552 18.819C203.914 19.7673 203.956 20.1233 204.594 20.8822C205.149 21.5445 205.949 22.0771 206.413 22.8325C207.506 24.6133 207.533 27.1884 207.185 29.1917C207.066 29.8738 206.079 31.6371 206.233 32.2175C206.38 32.7701 207.307 32.6247 207.726 32.9743C208.089 33.2761 208.407 34.6214 208.693 34.7035C209.31 34.8808 210.072 33.6601 210.54 33.4769C211.353 33.1587 211.693 32.8324 212.144 34.032C212.477 34.922 212.012 36.1303 211.767 36.9797C211.456 38.0612 211.112 39.3637 210.286 40.1815C209.316 41.1428 208.54 40.6172 207.469 41.1351C205.865 41.9111 206.338 44.3376 204.364 45.0311C202.483 45.6918 200.41 43.613 198.987 42.6573C199.282 44.9772 200.391 47.2128 199.859 49.5903C204.185 47.8933 208.465 45.4848 213.18 44.9542C215.585 44.6834 218.014 44.363 220.283 45.3621C222.94 46.5316 224.568 49.1115 226.366 51.255C229.746 55.2837 233.214 59.1992 236.458 63.3577C239.433 67.1722 241.941 71.592 245.216 75.1638C248.537 78.7856 251.043 84.6621 250.679 89.6775C250.647 90.1302 250.296 91.1588 250.351 91.6469C250.394 92.0209 250.733 92.495 250.728 92.7966C250.71 93.8115 250.375 94.3959 249.408 94.9587C247.733 95.9355 245.237 96.4298 243.343 96.6721C240.828 96.9944 237.747 97.0291 235.23 96.6852C232.635 96.3297 230.353 94.8754 227.966 93.9965C225.873 93.2252 223.77 92.7436 221.57 92.2515C220.356 91.98 219.013 91.2285 218.263 91.9558C217.574 92.6243 217.431 96.0542 217.271 96.9662C215.53 106.852 213.462 116.402 211.63 126.237C209.553 137.384 208.133 148.528 206.69 159.77C205.377 169.989 204.948 180.324 204.654 190.534C204.515 195.404 204.494 200.222 204.524 205.096C204.541 207.826 205.904 216.937 201.862 217.286C199.486 217.491 197.586 214.082 196.95 212.223C195.993 209.43 195.495 206.422 195.343 203.487C195.034 197.547 194.63 191.602 194.39 185.66C194.131 179.221 194.461 172.664 194.99 166.247C195.522 159.787 196.863 153.421 197.274 146.951C196.04 148.714 195.645 149.045 193.59 149.812C191.44 150.616 189.372 151.567 187.202 152.316C186.464 152.571 185.312 152.73 184.707 153.148C183.59 153.918 184.324 153.044 183.967 154.542C183.586 156.143 183.515 158.065 183.413 159.71C182.938 167.429 180.802 175.094 179.816 182.773C179.579 184.627 179.918 192.497 176.731 190.017C174.276 188.107 174.325 182.107 173.975 179.296C173.51 175.55 173.77 171.698 173.843 167.929C173.927 163.637 173.999 159.135 175.022 154.944C173.191 154.63 170.645 155.484 168.803 155.628C167.207 155.753 165.617 155.832 164.03 155.919C160.247 156.127 156.35 156.293 152.503 156.218C151.802 156.205 147.227 155.563 146.642 156.08C146.452 156.248 146.394 158.558 146.358 158.84C146.224 159.901 146.041 160.961 145.905 162.016C145.47 165.39 145.078 169.012 145.202 172.385Z" fill="black"/>
<path fill-rule="evenodd" clip-rule="evenodd" d="M213.153 204.444C216.041 205.573 219.106 205.983 222.017 207.013C224.621 207.933 227.038 209.169 229.602 210.104C229.751 208.914 229.831 206.899 229.392 205.777C228.77 204.188 227.134 204.149 225.523 203.583C221.602 202.206 217.478 201.916 213.585 200.307C214.252 201.591 213.954 203.292 213.153 204.444ZM262.998 200.29C256.761 200.473 250.802 201.926 244.656 202.824C241.665 203.261 238.672 203.651 235.678 204.059C234.526 204.216 232.427 204.031 231.589 205.029C230.895 205.856 231.656 208.679 231.348 209.891C232.608 209.984 234.846 208.805 236.214 208.61C238.344 208.307 240.447 207.882 242.599 207.747C246.008 207.532 249.357 207.349 252.761 206.969C256.221 206.583 259.57 205.865 263.058 205.603C264.754 205.476 265.436 205.794 265.536 204.002C265.575 203.301 265.671 202.128 265.475 201.437C265.788 200.588 265.51 200.176 264.64 200.2C264.087 200.138 263.54 200.168 262.998 200.29ZM250.936 194.571C252.623 194.412 254.316 194.185 256.007 194.09C256.35 194.07 258.089 194.175 258.372 193.856C258.775 193.405 258.327 191.754 258.253 191.243C258.002 189.506 257.725 188.496 255.832 188.492C254.235 188.488 252.581 188.827 250.99 188.983C243.767 189.691 236.58 189.99 229.436 191.336C229.871 193.19 230.365 195.102 229.845 196.998C233.272 197.175 237.034 196.515 240.383 195.838C243.806 195.146 247.438 194.802 250.936 194.571ZM239.504 177.118C236.923 177.129 234.195 178.267 231.649 178.013C231.611 178.488 232.426 178.094 232.651 178.538C233.132 178.539 233.299 178.696 233.152 179.01C233.161 179.224 233.052 179.349 232.824 179.386C232.712 179.396 232.599 179.405 232.488 179.415C231.995 179.431 231.914 179.763 232.246 180.413C232.103 181.218 232.317 182.241 232.348 183.049C236.924 182.425 241.37 181.777 245.979 181.499C248.155 181.367 250.329 181.368 252.502 181.189C254.893 180.991 257.503 181.414 259.84 180.966C261.09 180.726 260.959 180.743 260.868 179.116C260.812 178.128 260.833 176.955 260.03 176.234C258.687 175.03 255.63 175.726 254.025 175.768C249.19 175.896 244.274 176.346 239.504 177.118ZM242.145 200.348C249.059 199.719 255.921 198.343 262.873 198.343C262.382 197.851 261.311 197.724 260.699 197.456C260.001 197.15 259.343 196.499 258.661 196.232C257.293 195.696 255.901 196.441 254.496 196.763C251.106 197.54 247.629 197.566 244.234 198.328C240.724 199.116 237.169 199.842 233.594 200.243C231.892 200.433 230.066 200.82 228.384 200.37C228.248 200.272 228.11 200.174 227.974 200.077C227.827 199.45 227.419 199.283 226.75 199.575C225.9 199.413 224.817 199.622 223.962 199.643C223.927 199.985 227.088 201.059 227.691 201.324C229.144 201.965 230.128 202.433 231.68 202.159C235.173 201.541 238.608 200.804 242.145 200.348ZM217.825 180.114C218.095 181.168 219.23 180.688 220.207 180.805C221.518 180.96 222.822 181.413 224.092 181.754C226.398 182.375 228.704 182.986 231.001 183.642C230.91 182.714 231.115 180.6 230.625 179.777C230.111 178.913 227.673 178.535 226.538 178.272C223.676 177.609 220.619 177.986 217.712 178.125C217.763 178.788 217.801 179.45 217.825 180.114ZM245.314 186.71C248.029 186.48 250.748 186.301 253.471 186.205C256.584 186.096 254.321 185.598 254.255 183.697C250.164 184.351 246.036 184.479 241.957 185.038C238.577 185.501 234.551 186.71 231.105 186.061C229.479 185.755 227.819 185.637 226.089 185.463C224.457 185.3 222.918 184.539 221.306 184.35C219.497 184.138 217.648 185.156 215.849 185.425C215.086 185.539 214.908 186.057 214.548 185.138C214.175 184.184 215.245 183.405 215.666 182.835C216.158 182.169 215.954 183.25 216.227 182.21C216.303 181.919 216.096 181.186 216.058 180.873C215.961 180.079 215.712 179.218 215.673 178.426C215.637 177.698 215.631 176.587 216.42 176.163C216.902 175.904 217.243 176.281 217.663 176.208C220.94 175.638 224.794 175.591 228.117 176.142C231.72 176.738 234.82 175.159 238.371 174.518C242.537 173.767 246.746 173.654 250.947 173.337C254.54 173.065 261.103 171.658 262.472 176.251C262.859 177.553 263.424 181.136 262.381 182.243C261.013 183.697 257.845 183.233 256.076 183.611C256.341 184.364 257.129 184.877 256.856 185.774C259.335 185.892 259.774 188.236 260.162 190.424C260.564 192.689 259.78 193.589 261.942 194.768C264.954 196.411 268.146 198.071 268.087 201.985C268.058 203.952 267.838 206.92 265.819 207.941C263.845 208.94 260.63 208.771 258.454 209.133C254.24 209.836 250.011 210.66 245.772 211.082C241.257 211.531 236.668 211.899 232.146 212.1C229.683 212.21 227.554 212.582 225.175 211.752C222.836 210.936 220.547 210.341 218.134 209.735C215.751 209.137 208.456 208.332 210.582 204.253C210.922 203.6 212.085 203.081 212.272 202.464C212.575 201.469 211.552 200.692 211.595 199.792C211.673 198.146 213.528 197.939 214.809 197.939C212.613 196.565 215.554 194.937 215.536 193.77C215.505 191.714 212.951 190.379 212.806 188.656C212.455 184.461 225.747 188.829 227.793 189.736C226.219 192.073 218.913 190.051 216.737 189.696C217.034 190.477 217.317 191.178 217.403 191.978C217.473 192.629 217.224 193.373 217.452 194.029C217.811 195.065 217.799 194.867 219.07 195.149C220.01 195.358 220.94 195.599 221.878 195.821C223.318 196.161 225.583 197.074 227.01 197.024C228.261 196.98 228.014 197.369 228.243 195.977C228.367 195.229 228.156 194.435 228.03 193.702C227.768 192.167 227.383 190.714 228.723 189.612C230 188.562 232.692 188.062 234.258 187.691C237.735 186.869 241.747 186.668 245.314 186.71Z" fill="black"/>
<path fill-rule="evenodd" clip-rule="evenodd" d="M261.858 160.506C258.082 159.873 254.246 159.717 250.426 159.909C250.632 160.855 250.84 161.801 251.047 162.747C254.626 161.824 258.257 161.284 261.858 160.506ZM231.156 167.847C229.641 167.736 230.695 168.414 231.069 169.406C231.528 170.625 231.43 172.166 231.535 173.449C235.966 171.758 241.12 170.768 245.831 170.199C248.065 169.929 250.331 169.852 252.577 169.736C253.241 169.702 255.639 169.981 256.125 169.533C256.486 169.201 256.233 167.366 255.886 166.961C254.001 164.761 246.713 166.661 244.076 166.858C239.753 167.181 235.509 167.955 231.156 167.847ZM237.448 161.952C241.371 162.329 245.159 162.293 249.082 162.881C248.784 160.385 249.14 159.748 246.311 159.615C243.79 159.497 241.277 159.402 238.768 159.403C233.126 159.406 227.496 159.299 221.848 159.299V161.835C227.072 161.3 232.213 162.267 237.448 161.952ZM218.584 171.28C221.06 171.27 223.4 172.205 225.876 172.447C227.358 172.592 226.892 172.776 227.92 173.521C229.521 174.681 229.983 174.063 229.782 172.487C229.102 167.153 222.356 168.349 218.469 168.053C218.725 169.325 218.138 170.403 217.273 171.28H218.584ZM245.344 164.433C241.783 164.491 238.218 164.694 234.682 164.619C233.099 164.586 231.048 164.272 229.497 164.543C228.361 164.74 227.41 165.32 226.164 165.535C227.995 166.522 228.923 165.855 230.848 165.631C232.771 165.407 234.722 165.411 236.654 165.294C239.824 165.102 243.205 164.341 246.329 164.548C246.386 164.108 246.058 164.069 245.344 164.433ZM217.1 175.984C215.466 175.98 217.714 174.12 218.009 173.936C216.201 173.936 215.762 172.849 216.287 171.105C216.78 169.461 217.146 169.964 215.903 168.596C214.968 167.565 214.827 166.806 215.929 165.654C217.051 164.482 219.323 164.813 220.317 163.846C222.01 162.199 219.826 158.92 222.171 157.658C223.756 156.806 226.311 156.911 228.061 156.731C229.753 156.557 231.504 156.523 233.206 156.5C236.918 156.449 240.774 157.073 244.469 157.416C245.817 157.54 247.331 158.085 248.659 158.086C250.012 158.088 251.43 157.786 252.828 157.821C254.453 157.862 256.018 157.742 257.694 158.008C258.978 158.213 261.975 158.321 262.956 159.276C266.226 162.46 258.472 163.922 257.138 164.28C258.496 165.769 258.44 167.737 258.235 169.612C258.881 169.612 259.995 169.33 260.33 170.056C260.746 170.957 259.208 171.191 258.844 171.296C256.752 171.901 254.303 171.735 252.148 171.955C247.837 172.394 243.579 172.647 239.314 173.465C237.235 173.863 235.169 174.356 233.092 174.744C232.733 174.811 232.372 174.865 232.01 174.905C231.454 174.858 231.275 175.207 231.471 175.955C230.894 176.237 228.744 175.534 228.08 175.426C224.274 174.809 220.87 175.065 217.1 175.984Z" fill="black"/>
<path fill-rule="evenodd" clip-rule="evenodd" d="M293.941 212.974C291.487 214.908 289.206 216.732 286.548 218.412C288.426 218.354 294.675 215.354 293.941 212.974ZM292.983 209.823C291.643 208.671 290.313 208.789 288.655 208.439C287.128 208.118 285.644 207.564 284.12 207.195C282.924 206.906 281.741 206.515 280.549 206.242C278.867 205.855 278.701 206.281 277.153 207.163C271.666 210.294 265.525 212.447 259.745 214.988C261.442 216.484 265.26 216.548 267.381 217.025C268.929 217.373 270.403 217.849 271.886 218.4C273.267 218.913 275.493 220.094 276.949 220.133C278.178 220.166 279.178 218.955 280.236 218.303C281.629 217.444 283.015 216.601 284.418 215.764C287.388 213.992 290.165 211.822 292.983 209.823ZM268.183 222.504C267.55 221.894 265.643 221.921 264.849 221.734C263.284 221.369 261.742 220.988 260.157 220.713C257.584 220.268 253.52 220.068 253.24 216.727C253.007 213.95 256.359 213.291 258.319 212.35C261.268 210.935 264.275 209.629 267.298 208.381C270.132 207.211 273.008 206.222 275.894 205.211C276.457 205.014 276.913 205.041 277.373 204.59C277.735 204.234 277.624 203.543 278.021 203.171C278.93 202.32 280.111 202.768 281.204 202.986C283.686 203.482 286.264 204.133 288.63 205.052C291.09 206.008 293.29 206.207 293.88 208.998C295.138 208.408 296.084 208.322 295.933 210.057C295.89 210.567 295.52 211.122 295.431 211.648C295.3 212.423 295.529 213.241 295.399 214.018C294.929 216.845 291.122 218.938 288.763 220.048C285.854 221.417 282.1 223.439 278.852 223.706C275.391 223.991 271.619 222.63 268.183 222.504Z" fill="black"/>
<path fill-rule="evenodd" clip-rule="evenodd" d="M224.129 175.611C223.097 175.617 222.065 175.624 221.033 175.63C222.063 175.437 223.095 175.435 224.129 175.611Z" fill="black"/>
<path fill-rule="evenodd" clip-rule="evenodd" d="M163.763 66.3177C163.453 66.834 163.144 67.3503 162.834 67.8672C162.94 67.2015 163.175 66.631 163.763 66.3177Z" fill="black"/>
<path fill-rule="evenodd" clip-rule="evenodd" d="M224.129 190.423C224.749 190.429 225.369 190.433 225.986 190.439C225.365 190.434 224.747 190.429 224.129 190.423Z" fill="black"/>
<path fill-rule="evenodd" clip-rule="evenodd" d="M225.986 175.626C225.367 175.62 224.747 175.615 224.129 175.609C224.75 175.439 225.37 175.445 225.986 175.626Z" fill="black"/>
<path fill-rule="evenodd" clip-rule="evenodd" d="M250.623 87.7005C250.606 87.0804 250.588 86.4603 250.571 85.8411C250.589 86.4616 250.606 87.0807 250.623 87.7005Z" fill="black"/>
<path fill-rule="evenodd" clip-rule="evenodd" d="M145.362 181.289C145.35 180.772 145.337 180.256 145.324 179.74C145.337 180.257 145.35 180.773 145.362 181.289Z" fill="black"/>
<path fill-rule="evenodd" clip-rule="evenodd" d="M162.215 156.032C162.629 156.032 163.042 156.033 163.453 156.033C163.039 156.033 162.627 156.033 162.215 156.032Z" fill="black"/>
<path fill-rule="evenodd" clip-rule="evenodd" d="M217.628 44.7238C217.112 44.7613 216.596 44.7985 216.08 44.836C216.596 44.7985 217.112 44.7613 217.628 44.7238Z" fill="black"/>
<path fill-rule="evenodd" clip-rule="evenodd" d="M204.494 196.164C204.479 195.75 204.463 195.336 204.448 194.924C204.463 195.339 204.479 195.752 204.494 196.164Z" fill="black"/>
<path fill-rule="evenodd" clip-rule="evenodd" d="M205.107 180.359C205.096 179.946 205.085 179.532 205.074 179.12C205.085 179.533 205.096 179.946 205.107 180.359Z" fill="black"/>
<path fill-rule="evenodd" clip-rule="evenodd" d="M194.543 187.487C194.557 187.901 194.573 188.315 194.587 188.727C194.572 188.312 194.557 187.9 194.543 187.487Z" fill="black"/>
<path fill-rule="evenodd" clip-rule="evenodd" d="M164.691 155.729C165.002 155.725 165.312 155.72 165.62 155.716C165.309 155.72 165 155.725 164.691 155.729Z" fill="black"/>
<path fill-rule="evenodd" clip-rule="evenodd" d="M254.467 171.857C254.777 171.844 255.087 171.83 255.396 171.817C255.084 171.831 254.775 171.844 254.467 171.857Z" fill="black"/>
<path fill-rule="evenodd" clip-rule="evenodd" d="M195.157 197.404C195.175 197.817 195.193 198.231 195.211 198.643C195.193 198.228 195.175 197.816 195.157 197.404Z" fill="black"/>
<path fill-rule="evenodd" clip-rule="evenodd" d="M228.339 195.234C228.319 195.648 228.298 196.062 228.277 196.474C228.298 196.06 228.319 195.647 228.339 195.234Z" fill="black"/>
<path fill-rule="evenodd" clip-rule="evenodd" d="M192.659 10.5819C192.222 10.5262 191.784 10.4709 191.347 10.4151C191.781 10.5155 192.256 10.1431 192.659 10.5819Z" fill="black"/>
<path fill-rule="evenodd" clip-rule="evenodd" d="M173.842 169.513C173.83 169.927 173.818 170.34 173.806 170.753C173.817 170.338 173.83 169.926 173.842 169.513Z" fill="black"/>
<path fill-rule="evenodd" clip-rule="evenodd" d="M147.233 207.32C147.212 206.907 147.19 206.494 147.169 206.081C147.19 206.494 147.212 206.907 147.233 207.32Z" fill="black"/>
<path fill-rule="evenodd" clip-rule="evenodd" d="M247.347 172.467C247.658 172.46 247.968 172.453 248.275 172.447C247.964 172.454 247.655 172.46 247.347 172.467Z" fill="black"/>
<path fill-rule="evenodd" clip-rule="evenodd" d="M142.244 97.3073C142.247 97.7213 142.249 98.135 142.251 98.5469C142.248 98.1325 142.246 97.7201 142.244 97.3073Z" fill="black"/>
<path fill-rule="evenodd" clip-rule="evenodd" d="M135.749 190.276C135.748 190.69 135.746 191.104 135.744 191.516C135.745 191.101 135.747 190.689 135.749 190.276Z" fill="black"/>
<path fill-rule="evenodd" clip-rule="evenodd" d="M212.905 187.797C212.894 188.211 212.883 188.625 212.871 189.036C212.701 188.612 212.721 188.2 212.905 187.797Z" fill="black"/>
<path fill-rule="evenodd" clip-rule="evenodd" d="M204.786 185.938C204.782 185.524 204.779 185.11 204.776 184.698C204.779 185.113 204.782 185.525 204.786 185.938Z" fill="black"/>
<path fill-rule="evenodd" clip-rule="evenodd" d="M268.088 222.647C268.399 222.656 268.71 222.664 269.017 222.673C268.705 222.664 268.396 222.656 268.088 222.647Z" fill="black"/>
<path fill-rule="evenodd" clip-rule="evenodd" d="M256.943 183.309C257.15 183.305 257.358 183.302 257.562 183.298C257.354 183.302 257.149 183.305 256.943 183.309Z" fill="black"/>
<path fill-rule="evenodd" clip-rule="evenodd" d="M249.204 184.234C249.412 184.233 249.619 184.233 249.823 184.232C249.616 184.233 249.41 184.233 249.204 184.234Z" fill="black"/>
<path fill-rule="evenodd" clip-rule="evenodd" d="M128.645 186.247C128.633 185.938 128.62 185.627 128.608 185.318C128.621 185.628 128.633 185.938 128.645 186.247Z" fill="black"/>
<path fill-rule="evenodd" clip-rule="evenodd" d="M255.396 186.012C255.126 186.285 254.781 186.124 254.467 186.141C254.776 186.098 255.086 186.055 255.396 186.012Z" fill="black"/>
<path fill-rule="evenodd" clip-rule="evenodd" d="M218.557 176.097C218.148 176.291 217.735 176.317 217.318 176.111C217.731 176.106 218.144 176.102 218.557 176.097Z" fill="black"/>
<path fill-rule="evenodd" clip-rule="evenodd" d="M245.489 186.718C245.076 186.714 244.663 186.711 244.251 186.707C244.664 186.711 245.077 186.714 245.489 186.718Z" fill="black"/>
<path fill-rule="evenodd" clip-rule="evenodd" d="M133.592 174.471C133.584 174.782 133.576 175.092 133.568 175.401C133.575 175.09 133.583 174.78 133.592 174.471Z" fill="black"/>
<path fill-rule="evenodd" clip-rule="evenodd" d="M204.757 191.206C204.773 190.895 204.789 190.585 204.805 190.276C204.789 190.587 204.773 190.896 204.757 191.206Z" fill="black"/>
<path fill-rule="evenodd" clip-rule="evenodd" d="M247.347 173.335C246.934 173.369 246.521 173.404 246.108 173.439C246.521 173.404 246.934 173.369 247.347 173.335Z" fill="black"/>
<path fill-rule="evenodd" clip-rule="evenodd" d="M145.356 172.302C145.348 171.992 145.339 171.681 145.33 171.372C145.339 171.684 145.348 171.993 145.356 172.302Z" fill="black"/>
<path fill-rule="evenodd" clip-rule="evenodd" d="M197.078 148.44C197.054 148.751 197.029 149.061 197.005 149.37C197.029 149.059 197.054 148.75 197.078 148.44Z" fill="black"/>
<path fill-rule="evenodd" clip-rule="evenodd" d="M253.538 157.818C253.125 158.032 252.712 158.005 252.3 157.815C252.712 157.816 253.125 157.817 253.538 157.818Z" fill="black"/>
<path fill-rule="evenodd" clip-rule="evenodd" d="M204.499 200.813C204.48 200.502 204.462 200.192 204.444 199.883C204.462 200.194 204.48 200.503 204.499 200.813Z" fill="black"/>
<path fill-rule="evenodd" clip-rule="evenodd" d="M204.491 203.292C204.478 202.981 204.464 202.671 204.452 202.362C204.465 202.672 204.478 202.982 204.491 203.292Z" fill="black"/>
<path fill-rule="evenodd" clip-rule="evenodd" d="M145.956 162.385C145.961 162.075 145.965 161.764 145.969 161.456C145.964 161.767 145.96 162.076 145.956 162.385Z" fill="black"/>
<path fill-rule="evenodd" clip-rule="evenodd" d="M234.035 211.822C234.242 211.816 234.45 211.81 234.654 211.805C234.446 211.812 234.241 211.817 234.035 211.822Z" fill="black"/>
<path fill-rule="evenodd" clip-rule="evenodd" d="M134.224 214.448C134.207 214.138 134.19 213.828 134.174 213.518C134.191 213.828 134.207 214.138 134.224 214.448Z" fill="black"/>
<path fill-rule="evenodd" clip-rule="evenodd" d="M201.221 217.076C201.428 217.08 201.636 217.084 201.84 217.089C201.632 217.084 201.426 217.08 201.221 217.076Z" fill="black"/>
<path fill-rule="evenodd" clip-rule="evenodd" d="M201.349 190.586C201.367 189.656 201.384 188.726 201.401 187.797C201.384 188.727 201.367 189.656 201.349 190.586Z" fill="black"/>
<path fill-rule="evenodd" clip-rule="evenodd" d="M177.213 156.497C177.223 157.221 177.234 157.945 177.245 158.667C177.235 157.942 177.224 157.22 177.213 156.497Z" fill="black"/>
<path fill-rule="evenodd" clip-rule="evenodd" d="M123.828 201.888C123.311 201.894 122.794 201.9 122.28 201.907C122.798 201.901 123.313 201.894 123.828 201.888Z" fill="black"/>
<path fill-rule="evenodd" clip-rule="evenodd" d="M166.239 140.24C165.722 140.232 165.205 140.223 164.691 140.216C165.21 140.224 165.725 140.232 166.239 140.24Z" fill="black"/>
<path fill-rule="evenodd" clip-rule="evenodd" d="M152.928 152.314C153.444 152.314 153.96 152.314 154.476 152.313C153.96 152.313 153.444 152.314 152.928 152.314Z" fill="black"/>
<path fill-rule="evenodd" clip-rule="evenodd" d="M159.738 139.908C159.324 139.915 158.91 139.922 158.5 139.928C158.915 139.921 159.327 139.915 159.738 139.908Z" fill="black"/>
<path fill-rule="evenodd" clip-rule="evenodd" d="M126.305 201.901C125.891 201.898 125.477 201.896 125.066 201.894C125.482 201.896 125.893 201.898 126.305 201.901Z" fill="black"/>
<path fill-rule="evenodd" clip-rule="evenodd" d="M182.027 43.5943C182.543 43.5583 183.059 43.5224 183.575 43.4865C183.059 43.5224 182.543 43.5583 182.027 43.5943Z" fill="black"/>
<path fill-rule="evenodd" clip-rule="evenodd" d="M188.964 79.9531C188.983 79.4365 189.002 78.9199 189.021 78.4036C189.002 78.9205 188.983 79.4368 188.964 79.9531Z" fill="black"/>
<path fill-rule="evenodd" clip-rule="evenodd" d="M176.455 84.7562C176.145 84.7562 175.834 84.7565 175.526 84.7568C175.838 84.7568 176.146 84.7565 176.455 84.7562Z" fill="black"/>
<path fill-rule="evenodd" clip-rule="evenodd" d="M150.142 138.983C149.831 138.987 149.52 138.99 149.213 138.993C149.525 138.99 149.833 138.987 150.142 138.983Z" fill="black"/>
<path fill-rule="evenodd" clip-rule="evenodd" d="M143.021 151.644C143.434 151.677 143.847 151.711 144.26 151.745C143.847 151.711 143.434 151.677 143.021 151.644Z" fill="black"/>
<path fill-rule="evenodd" clip-rule="evenodd" d="M142.238 167.344C142.244 166.93 142.251 166.517 142.257 166.104C142.251 166.518 142.244 166.931 142.238 167.344Z" fill="black"/>
<path fill-rule="evenodd" clip-rule="evenodd" d="M177.693 150.825C178.106 150.784 178.519 150.744 178.932 150.704C178.519 150.744 178.106 150.784 177.693 150.825Z" fill="black"/>
<path fill-rule="evenodd" clip-rule="evenodd" d="M205.982 143.482C206.007 143.068 206.031 142.654 206.056 142.242C206.031 142.656 206.007 143.069 205.982 143.482Z" fill="black"/>
<path fill-rule="evenodd" clip-rule="evenodd" d="M169.335 140.542C169.024 140.539 168.714 140.536 168.406 140.533C168.718 140.536 169.027 140.539 169.335 140.542Z" fill="black"/>
<path fill-rule="evenodd" clip-rule="evenodd" d="M142.27 190.586C142.255 190.275 142.24 189.965 142.225 189.656C142.24 189.967 142.255 190.276 142.27 190.586Z" fill="black"/>
<path fill-rule="evenodd" clip-rule="evenodd" d="M176.979 174.781C177.656 176.461 177.276 175.272 177.293 175.659C176.717 175.737 176.612 175.444 176.979 174.781Z" fill="black"/>
<path fill-rule="evenodd" clip-rule="evenodd" d="M148.594 139.005C148.284 138.994 147.972 138.983 147.665 138.971C147.977 138.982 148.285 138.994 148.594 139.005Z" fill="black"/>
<path fill-rule="evenodd" clip-rule="evenodd" d="M211.871 107.534C211.891 107.12 211.911 106.707 211.93 106.294C211.91 106.708 211.891 107.121 211.871 107.534Z" fill="black"/>
<path fill-rule="evenodd" clip-rule="evenodd" d="M142.249 187.487C142.248 187.074 142.247 186.66 142.246 186.247C142.247 186.662 142.248 187.075 142.249 187.487Z" fill="black"/>
<path fill-rule="evenodd" clip-rule="evenodd" d="M142.215 178.19C142.237 177.88 142.258 177.57 142.28 177.26C142.258 177.571 142.237 177.881 142.215 178.19Z" fill="black"/>
<path fill-rule="evenodd" clip-rule="evenodd" d="M206.595 137.594C206.624 137.284 206.653 136.973 206.682 136.664C206.653 136.975 206.624 137.284 206.595 137.594Z" fill="black"/>
<path fill-rule="evenodd" clip-rule="evenodd" d="M138.182 179.12C138.209 179.43 138.237 179.741 138.265 180.049C138.237 179.739 138.209 179.43 138.182 179.12Z" fill="black"/>
<path fill-rule="evenodd" clip-rule="evenodd" d="M137.558 176.641C137.589 176.951 137.619 177.261 137.65 177.57C137.619 177.259 137.589 176.95 137.558 176.641Z" fill="black"/>
<path fill-rule="evenodd" clip-rule="evenodd" d="M199.483 134.185C199.507 133.875 199.53 133.565 199.553 133.255C199.529 133.566 199.506 133.875 199.483 134.185Z" fill="black"/>
<path fill-rule="evenodd" clip-rule="evenodd" d="M41.4824 176.225C41.8948 176.192 42.3077 176.159 42.7207 176.127C42.3068 176.159 41.8945 176.192 41.4824 176.225Z" fill="black"/>
<path fill-rule="evenodd" clip-rule="evenodd" d="M196.75 183.768C196.738 184.079 196.725 184.39 196.714 184.698C196.726 184.386 196.738 184.078 196.75 183.768Z" fill="black"/>
<path fill-rule="evenodd" clip-rule="evenodd" d="M201.651 184.698C201.674 184.388 201.697 184.078 201.72 183.768C201.697 184.079 201.674 184.388 201.651 184.698Z" fill="black"/>
<path fill-rule="evenodd" clip-rule="evenodd" d="M199.779 132.945C199.811 132.635 199.844 132.325 199.877 132.016C199.844 132.326 199.811 132.636 199.779 132.945Z" fill="black"/>
<path fill-rule="evenodd" clip-rule="evenodd" d="M43.959 175.927C44.372 175.886 44.7849 175.845 45.1973 175.805C44.7849 175.845 44.3713 175.886 43.959 175.927Z" fill="black"/>
<path fill-rule="evenodd" clip-rule="evenodd" d="M175.217 140.224C175.01 140.227 174.802 140.229 174.598 140.231C174.806 140.229 175.011 140.227 175.217 140.224Z" fill="black"/>
<path fill-rule="evenodd" clip-rule="evenodd" d="M142.249 175.401C142.248 175.091 142.247 174.78 142.246 174.471C142.247 174.782 142.248 175.091 142.249 175.401Z" fill="black"/>
<path fill-rule="evenodd" clip-rule="evenodd" d="M202.328 174.781C202.219 174.461 202.165 174.145 202.377 173.852C202.361 174.162 202.345 174.472 202.328 174.781Z" fill="black"/>
<path fill-rule="evenodd" clip-rule="evenodd" d="M197.055 168.893C197.046 169.203 197.037 169.514 197.029 169.823C197.038 169.512 197.046 169.203 197.055 168.893Z" fill="black"/>
<path fill-rule="evenodd" clip-rule="evenodd" d="M197.322 199.573C197.341 199.883 197.361 200.194 197.38 200.503C197.361 200.192 197.341 199.882 197.322 199.573Z" fill="black"/>
<path fill-rule="evenodd" clip-rule="evenodd" d="M220.104 86.8598C220.414 86.9041 220.724 86.9481 221.033 86.9921C220.723 86.9478 220.414 86.9035 220.104 86.8598Z" fill="black"/>
<path fill-rule="evenodd" clip-rule="evenodd" d="M218.866 86.8886C219.282 86.9137 219.738 86.7138 220.104 87.0067L218.866 86.8886Z" fill="black"/>
<path fill-rule="evenodd" clip-rule="evenodd" d="M175.217 86.562L176.455 86.6698C176.042 86.6339 175.63 86.5979 175.217 86.562Z" fill="black"/>
<path fill-rule="evenodd" clip-rule="evenodd" d="M154.785 152.233C155.198 152.235 155.611 152.237 156.023 152.238C155.609 152.438 155.196 152.458 154.785 152.233Z" fill="black"/>
<path fill-rule="evenodd" clip-rule="evenodd" d="M143.521 204.221C143.498 203.911 143.474 203.6 143.451 203.292C143.474 203.602 143.498 203.912 143.521 204.221Z" fill="black"/>
<path fill-rule="evenodd" clip-rule="evenodd" d="M188.676 87.0807C188.681 86.7702 188.685 86.4603 188.69 86.151C188.685 86.4619 188.681 86.7715 188.676 87.0807Z" fill="black"/>
<path fill-rule="evenodd" clip-rule="evenodd" d="M162.524 152.364C162.937 152.331 163.35 152.297 163.763 152.264C163.35 152.297 162.937 152.331 162.524 152.364Z" fill="black"/>
<path fill-rule="evenodd" clip-rule="evenodd" d="M197.65 207.01C197.657 207.321 197.664 207.631 197.671 207.94C197.664 207.629 197.657 207.32 197.65 207.01Z" fill="black"/>
<path fill-rule="evenodd" clip-rule="evenodd" d="M204.119 158.357C204.148 158.047 204.176 157.736 204.204 157.427C204.176 157.738 204.147 158.047 204.119 158.357Z" fill="black"/>
<path fill-rule="evenodd" clip-rule="evenodd" d="M218.367 75.6146C218.39 75.3041 218.414 74.9942 218.437 74.6849C218.414 74.9954 218.39 75.305 218.367 75.6146Z" fill="black"/>
<path fill-rule="evenodd" clip-rule="evenodd" d="M188.984 48.9635C188.99 49.2737 188.995 49.5843 189.002 49.8932C188.996 49.5824 188.99 49.2728 188.984 48.9635Z" fill="black"/>
<path fill-rule="evenodd" clip-rule="evenodd" d="M178.003 43.1787C178.416 43.2131 178.829 43.2478 179.241 43.2819C178.829 43.2475 178.416 43.2131 178.003 43.1787Z" fill="black"/>
<path fill-rule="evenodd" clip-rule="evenodd" d="M116.089 219.312C116.502 219.271 116.914 219.231 117.327 219.191C116.914 219.231 116.502 219.272 116.089 219.312Z" fill="black"/>
<path fill-rule="evenodd" clip-rule="evenodd" d="M178.622 40.1318C178.415 40.1315 178.207 40.1312 178.003 40.1312C178.211 40.1318 178.417 40.1318 178.622 40.1318Z" fill="black"/>
<path fill-rule="evenodd" clip-rule="evenodd" d="M102.468 223.348C102.881 223.135 103.293 223.196 103.706 223.35C103.293 223.349 102.88 223.349 102.468 223.348Z" fill="black"/>
<path fill-rule="evenodd" clip-rule="evenodd" d="M263.135 200.023C262.721 200.033 262.307 200.042 261.896 200.052C262.311 200.043 262.723 200.033 263.135 200.023Z" fill="black"/>
<path fill-rule="evenodd" clip-rule="evenodd" d="M256.943 193.877C257.459 193.838 257.975 193.799 258.491 193.759C258.01 194.062 257.459 193.838 256.943 193.877Z" fill="black"/>
<path fill-rule="evenodd" clip-rule="evenodd" d="M251.062 194.516C251.578 194.478 252.093 194.441 252.609 194.404C252.094 194.441 251.578 194.478 251.062 194.516Z" fill="black"/>
<path fill-rule="evenodd" clip-rule="evenodd" d="M246.108 199.783C246.521 199.746 246.934 199.71 247.347 199.673C246.934 199.71 246.521 199.746 246.108 199.783Z" fill="black"/>
<path fill-rule="evenodd" clip-rule="evenodd" d="M248.275 189.189C247.965 189.191 247.654 189.193 247.347 189.194C247.658 189.192 247.967 189.19 248.275 189.189Z" fill="black"/>
<path fill-rule="evenodd" clip-rule="evenodd" d="M256.015 206.261C256.427 206.226 256.84 206.191 257.253 206.156C256.868 206.427 256.433 206.271 256.015 206.261Z" fill="black"/>
<path fill-rule="evenodd" clip-rule="evenodd" d="M242.703 176.486C242.392 176.486 242.082 176.485 241.774 176.485C242.086 176.485 242.395 176.486 242.703 176.486Z" fill="black"/>
<path fill-rule="evenodd" clip-rule="evenodd" d="M239.607 177.104C239.4 177.105 239.193 177.106 238.988 177.107C239.197 177.106 239.402 177.105 239.607 177.104Z" fill="black"/>
<path fill-rule="evenodd" clip-rule="evenodd" d="M232.178 177.967C232.074 178.222 231.527 178.189 231.56 177.928C231.766 177.941 231.972 177.954 232.178 177.967Z" fill="black"/>
<path fill-rule="evenodd" clip-rule="evenodd" d="M217.764 179.12C217.777 179.43 217.789 179.74 217.802 180.049C217.789 179.739 217.777 179.429 217.764 179.12Z" fill="black"/>
<path fill-rule="evenodd" clip-rule="evenodd" d="M260.039 180.763C260.349 180.757 260.658 180.752 260.968 180.747C260.662 180.966 260.352 180.935 260.039 180.763Z" fill="black"/>
<path fill-rule="evenodd" clip-rule="evenodd" d="M248.275 176.171C248.068 176.175 247.861 176.178 247.656 176.18C247.865 176.177 248.07 176.175 248.275 176.171Z" fill="black"/>
<path fill-rule="evenodd" clip-rule="evenodd" d="M240.227 195.757C240.64 195.718 241.052 195.68 241.465 195.641C241.052 195.68 240.64 195.718 240.227 195.757Z" fill="black"/>
<path fill-rule="evenodd" clip-rule="evenodd" d="M244.561 207.54C244.974 207.389 245.387 207.337 245.799 207.544C245.386 207.543 244.973 207.541 244.561 207.54Z" fill="black"/>
<path fill-rule="evenodd" clip-rule="evenodd" d="M243.904 164.824L243.322 164.622C244.044 164.613 244.767 164.604 245.489 164.596C245.491 164.596 243.988 164.83 243.904 164.824Z" fill="black"/>
<path fill-rule="evenodd" clip-rule="evenodd" d="M238.369 159.442C237.852 159.442 237.335 159.441 236.821 159.441C237.339 159.441 237.854 159.442 238.369 159.442Z" fill="black"/>
<path fill-rule="evenodd" clip-rule="evenodd" d="M218.866 171.288C219.381 171.081 219.897 171.122 220.414 171.282C219.898 171.284 219.382 171.286 218.866 171.288Z" fill="black"/>
<path fill-rule="evenodd" clip-rule="evenodd" d="M250.133 166.254C249.822 166.257 249.512 166.261 249.204 166.265C249.516 166.261 249.824 166.257 250.133 166.254Z" fill="black"/>
<path fill-rule="evenodd" clip-rule="evenodd" d="M243.632 162.18C244.148 162.213 244.664 162.247 245.18 162.281C244.664 162.247 244.148 162.213 243.632 162.18Z" fill="black"/>
<path fill-rule="evenodd" clip-rule="evenodd" d="M237.75 161.87C238.163 161.904 238.576 161.938 238.988 161.971C238.575 161.937 238.163 161.904 237.75 161.87Z" fill="black"/>
<path fill-rule="evenodd" clip-rule="evenodd" d="M231.868 167.815C231.661 167.811 231.454 167.806 231.249 167.802C231.457 167.806 231.663 167.811 231.868 167.815Z" fill="black"/>
<path fill-rule="evenodd" clip-rule="evenodd" d="M238.369 164.729C238.162 164.716 237.955 164.703 237.75 164.69C237.958 164.703 238.164 164.716 238.369 164.729Z" fill="black"/>
<path fill-rule="evenodd" clip-rule="evenodd" d="M234.345 164.718C234.137 164.712 233.93 164.706 233.726 164.701C233.934 164.707 234.139 164.712 234.345 164.718Z" fill="black"/>
<path fill-rule="evenodd" clip-rule="evenodd" d="M245.489 164.43C245.489 164.51 246.422 164.103 246.418 164.482L245.489 164.43Z" fill="black"/>
<path fill-rule="evenodd" clip-rule="evenodd" d="M242.084 159.441C241.877 159.441 241.669 159.442 241.465 159.442C241.673 159.442 241.878 159.441 242.084 159.441Z" fill="black"/>
<path fill-rule="evenodd" clip-rule="evenodd" d="M132.187 144.745C132.522 143.375 132.43 142.304 133.624 143.179C134.28 143.66 135.36 146.096 135.278 146.921C135.177 147.939 134.713 148.345 133.756 148.021C132.656 147.648 132.219 145.769 132.187 144.745Z" fill="black"/>
<path fill-rule="evenodd" clip-rule="evenodd" d="M192.5 136.431C195.273 136.431 194.063 139.384 191.752 139.45C190.69 139.481 189.162 139.271 189.507 137.848C189.691 137.089 192.384 136.065 192.5 136.431Z" fill="black"/>
<path fill-rule="evenodd" clip-rule="evenodd" d="M162.764 142.242C164.765 143.212 161.95 147.468 160.131 146.414C157.803 145.066 161.941 142.85 162.764 142.242Z" fill="black"/>
<path fill-rule="evenodd" clip-rule="evenodd" d="M157.895 146.271C158.55 146.986 161.502 149.411 159.875 150.386C157.873 151.585 156.35 147.627 157.895 146.271Z" fill="black"/>
<path fill-rule="evenodd" clip-rule="evenodd" d="M124.348 144.411C123.697 143.151 124.592 139.853 126.581 140.456C128.581 141.063 125.448 144.077 124.348 144.411Z" fill="black"/>
<path fill-rule="evenodd" clip-rule="evenodd" d="M168.511 145.138C169.81 144.615 169.562 146.162 169.758 146.662C169.981 147.229 171.124 148.61 170.837 149.214C170.412 150.11 169.395 149.539 168.842 148.957C167.874 147.937 167.943 146.302 168.511 145.138Z" fill="black"/>
<path fill-rule="evenodd" clip-rule="evenodd" d="M148.73 146.572C147.648 146.572 145.066 143.45 146.583 142.926C148.467 142.276 150.041 146.802 148.73 146.572Z" fill="black"/>
<path fill-rule="evenodd" clip-rule="evenodd" d="M186.116 141.622C187.107 141.867 188.418 144.675 186.925 145.001C185.272 145.362 184.977 142.399 186.116 141.622Z" fill="black"/>
<path fill-rule="evenodd" clip-rule="evenodd" d="M180.109 146.891C179.332 145.393 179.14 142.186 181.038 144.76C181.449 145.317 181.873 145.092 181.662 146.011C181.477 146.814 180.741 146.891 180.109 146.891Z" fill="black"/>
<path fill-rule="evenodd" clip-rule="evenodd" d="M139.178 139.143C139.97 140.337 139.736 144.079 138.081 141.865C137.377 140.925 137.862 139.188 139.178 139.143Z" fill="black"/>
<path fill-rule="evenodd" clip-rule="evenodd" d="M178.99 26.6814C180.527 26.2842 180.895 29.9109 179.999 30.3107C178.744 30.8701 178.901 27.288 178.99 26.6814Z" fill="black"/>
<path fill-rule="evenodd" clip-rule="evenodd" d="M276.185 210.93C274.759 210.847 272.761 210.457 274.921 209.444C276.292 208.802 278.33 208.758 279.777 209.021C280.775 209.203 282.272 210.03 280.749 211.104C279.858 211.731 277.269 210.961 276.185 210.93Z" fill="black"/>
<path fill-rule="evenodd" clip-rule="evenodd" d="M274.587 213.518C274.174 213.472 273.762 213.425 273.351 213.379C273.681 212.778 274.642 212.652 274.587 213.518Z" fill="black"/>
<path fill-rule="evenodd" clip-rule="evenodd" d="M276.446 210.87C276.86 210.879 277.274 210.889 277.685 210.898C277.269 210.889 276.858 210.879 276.446 210.87Z" fill="black"/>
</svg>
